<?xml version="1.0" encoding="utf-8"?>
<!-- Generator: Adobe Illustrator 20.0.0, SVG Export Plug-In . SVG Version: 6.00 Build 0)  -->
<svg version="1.1" id="Layer_1" xmlns="http://www.w3.org/2000/svg" xmlns:xlink="http://www.w3.org/1999/xlink" x="0px" y="0px"
	 viewBox="0 0 594.3 102" style="enable-background:new 0 0 594.3 102;" xml:space="preserve">
<style type="text/css">
	.st0{enable-background:new    ;}
	.st1{fill:#FFFFFF;}
	.st2{fill:#F6A81C;}
</style>
<g class="st0">
	<path class="st1" d="M50.4,50.4H37.9v17.3h-3.3V33.1h15.8v3.3H37.9V47h12.5V50.4z"/>
	<path class="st1" d="M85.7,67.7H71v-3.3h5.6V36.3H71V33h14.6v3.3H80v28.2h5.6V67.7z"/>
	<path class="st1" d="M127,36.4h-11.1v31.3h-3.4V36.4h-11.2v-3.3H127V36.4z"/>
	<path class="st1" d="M164.1,67.7h-1.4l-23.3-26.8v26.8H136V33.1l1.3,0l23.4,27.5V33.1h3.4V67.7z"/>
	<path class="st1" d="M194.6,67.7h-17.3V33.1h17.3v3.3h-14V47h14v3.3h-14v13.9h14V67.7z"/>
	<path class="st1" d="M232.4,57.8c0,6.8-3.3,10.2-10,10.2c-5.6,0-9.4-2.7-11.3-8.2l3.5-1.2c0,1.9,0.9,3.4,2.6,4.6
		c1.5,1,3.2,1.5,5.2,1.5c4.5,0,6.7-2.2,6.7-6.7c0-1.6-1.1-3.3-3.2-4.9c-1-0.8-3.2-2.1-6.5-4c-2.7-1.5-4.5-2.8-5.2-3.7
		c-0.8-1-1.2-2.4-1.2-4.1c0-2.6,0.9-4.6,2.8-6.2c1.7-1.5,3.9-2.2,6.5-2.2c3.8,0,6.7,2,8.8,5.9l-3.2,1.2c-1.4-2.5-3.3-3.8-5.5-3.8
		c-1.6,0-3,0.5-4.1,1.4c-1.2,1-1.8,2.3-1.8,3.9c0,1.4,1.4,2.9,4.2,4.5c4.7,2.7,7.3,4.2,7.7,4.5C231,52.6,232.4,55,232.4,57.8z"/>
	<path class="st1" d="M268.3,57.8c0,6.8-3.3,10.2-10,10.2c-5.6,0-9.4-2.7-11.3-8.2l3.5-1.2c0,1.9,0.9,3.4,2.6,4.6
		c1.5,1,3.2,1.5,5.2,1.5c4.5,0,6.7-2.2,6.7-6.7c0-1.6-1.1-3.3-3.2-4.9c-1-0.8-3.2-2.1-6.5-4c-2.7-1.5-4.5-2.8-5.2-3.7
		c-0.8-1-1.2-2.4-1.2-4.1c0-2.6,0.9-4.6,2.8-6.2c1.7-1.5,3.9-2.2,6.5-2.2c3.8,0,6.7,2,8.8,5.9l-3.2,1.2c-1.4-2.5-3.3-3.8-5.5-3.8
		c-1.6,0-3,0.5-4.1,1.4c-1.2,1-1.8,2.3-1.8,3.9c0,1.4,1.4,2.9,4.2,4.5c4.7,2.7,7.3,4.2,7.7,4.5C266.9,52.6,268.3,55,268.3,57.8z"/>
</g>
<g class="st0">
</g>
<g class="st0">
	<path class="st2" d="M337.3,50.4h-12.5v17.3h-3.3V33.1h15.8v3.3h-12.5V47h12.5V50.4z"/>
	<path class="st2" d="M372.6,67.7h-14.6v-3.3h5.6V36.3h-5.6V33h14.6v3.3h-5.6v28.2h5.6V67.7z"/>
	<path class="st2" d="M409,50.4h-12.5v17.3h-3.3V33.1H409v3.3h-12.5V47H409V50.4z"/>
	<path class="st2" d="M449.8,36.4h-11.1v31.3h-3.4V36.4h-11.2v-3.3h25.6V36.4z"/>
	<path class="st2" d="M481.5,67.7h-17.3V33.1h17.3v3.3h-14V47h14v3.3h-14v13.9h14V67.7z"/>
	<path class="st2" d="M517.3,67.7H500V33.1h17.3v3.3h-14V47h14v3.3h-14v13.9h14V67.7z"/>
	<path class="st2" d="M558.6,67.7h-1.4l-23.3-26.8v26.8h-3.4V33.1l1.3,0l23.4,27.5V33.1h3.4V67.7z"/>
</g>
</svg>
