<?xml version="1.0" encoding="utf-8"?>
<!-- Generator: Adobe Illustrator 20.0.0, SVG Export Plug-In . SVG Version: 6.00 Build 0)  -->
<svg version="1.1" id="Layer_1" xmlns="http://www.w3.org/2000/svg" xmlns:xlink="http://www.w3.org/1999/xlink" x="0px" y="0px"
	 viewBox="0 0 465.9 102" style="enable-background:new 0 0 465.9 102;" xml:space="preserve">
<style type="text/css">
	.st0{enable-background:new    ;}
	.st1{fill:#FFFFFF;}
	.st2{fill:#F6A81C;}
</style>
<g class="st0">
	<path class="st1" d="M25.6,71.1v-40H51v3.1H29V49h21.5v3.1H29v19H25.6z"/>
	<path class="st1" d="M72.1,71.1v-40h3.4v40H72.1z"/>
	<path class="st1" d="M109.7,71.1V34.2H96.6v-3.1h29.6v3.1h-13.1v36.9H109.7z"/>
	<path class="st1" d="M175.9,71.1l-25.2-34.4v34.4h-3.4v-40h3.5L175.9,65V31.1h3.4v40H175.9z"/>
	<path class="st1" d="M203.2,71.1v-40h25.4v3.1h-22V49h21.5v3.1h-21.5V68h22v3.1H203.2z"/>
	<path class="st1" d="M248.8,65.5l2.2-2.6c2.6,2.9,6.8,5.8,12.5,5.8c8.2,0,10.5-4.6,10.5-8c0-11.8-24-5.6-24-19.6
		c0-6.5,5.9-10.7,13.1-10.7c5.9,0,10.5,2.1,13.6,5.6l-2.3,2.5c-2.9-3.5-7-5-11.5-5c-5.3,0-9.4,3.1-9.4,7.4c0,10.3,24,4.6,24,19.6
		c0,5.2-3.4,11.3-14.2,11.3C256.9,71.8,251.9,69.1,248.8,65.5z"/>
	<path class="st1" d="M297.7,65.5l2.2-2.6c2.6,2.9,6.8,5.8,12.5,5.8c8.2,0,10.5-4.6,10.5-8c0-11.8-24-5.6-24-19.6
		c0-6.5,5.9-10.7,13.1-10.7c5.9,0,10.5,2.1,13.6,5.6l-2.3,2.5c-2.9-3.5-7-5-11.5-5c-5.3,0-9.4,3.1-9.4,7.4c0,10.3,24,4.6,24,19.6
		c0,5.2-3.4,11.3-14.2,11.3C305.7,71.8,300.7,69.1,297.7,65.5z"/>
</g>
<g class="st0">
</g>
<g class="st0">
	<path class="st2" d="M386.7,71.1V35.8l-6.4,6.8l-2.1-2.2l8.8-9.3h3.1v40H386.7z"/>
	<path class="st2" d="M413.5,65.3l2.3-2.3c2.6,3.7,6.1,5.7,11.2,5.7c5.8,0,10-4.2,10-9.7c0-6.1-4.2-9.8-10-9.8
		c-3.7,0-6.8,1.2-9.7,3.9l-2.6-1.1v-21h23.1v3.1h-19.7v15.7c2-1.9,5.4-3.7,9.5-3.7c6.7,0,12.8,4.4,12.8,12.8c0,8-6.1,12.9-13.5,12.9
		C420.4,71.8,416.3,69.3,413.5,65.3z"/>
</g>
</svg>
