<?xml version="1.0" encoding="utf-8"?>
<!-- Generator: Adobe Illustrator 20.0.0, SVG Export Plug-In . SVG Version: 6.00 Build 0)  -->
<svg version="1.1" id="Layer_1" xmlns="http://www.w3.org/2000/svg" xmlns:xlink="http://www.w3.org/1999/xlink" x="0px" y="0px"
	 viewBox="0 0 699 102" style="enable-background:new 0 0 699 102;" xml:space="preserve">
<style type="text/css">
	.st0{enable-background:new    ;}
	.st1{fill:#FFFFFF;}
	.st2{fill:#F6A81C;}
</style>
<g class="st0">
	<path class="st1" d="M21.9,71.1v-40h25.4v3.1h-22v14.8h21.5v3.1H25.4v19H21.9z"/>
	<path class="st1" d="M68.4,71.1v-40h3.4v40H68.4z"/>
	<path class="st1" d="M106,71.1V34.2H92.9v-3.1h29.6v3.1h-13.1v36.9H106z"/>
	<path class="st1" d="M172.2,71.1L147,36.8v34.4h-3.4v-40h3.5L172.2,65V31.1h3.4v40H172.2z"/>
	<path class="st1" d="M199.5,71.1v-40h25.4v3.1h-22v14.8h21.5v3.1H203V68h22v3.1H199.5z"/>
	<path class="st1" d="M245.1,65.5l2.2-2.6c2.6,2.9,6.8,5.8,12.5,5.8c8.2,0,10.5-4.6,10.5-8c0-11.8-24-5.6-24-19.6
		c0-6.5,5.9-10.7,13.1-10.7c5.9,0,10.5,2.1,13.6,5.6l-2.3,2.5c-2.9-3.5-7-5-11.5-5c-5.3,0-9.4,3.1-9.4,7.4c0,10.3,24,4.6,24,19.6
		c0,5.2-3.4,11.3-14.2,11.3C253.2,71.9,248.2,69.2,245.1,65.5z"/>
	<path class="st1" d="M294,65.5l2.2-2.6c2.6,2.9,6.8,5.8,12.5,5.8c8.2,0,10.5-4.6,10.5-8c0-11.8-24-5.6-24-19.6
		c0-6.5,5.9-10.7,13.1-10.7c5.9,0,10.5,2.1,13.6,5.6l-2.3,2.5c-2.9-3.5-7-5-11.5-5c-5.3,0-9.4,3.1-9.4,7.4c0,10.3,24,4.6,24,19.6
		c0,5.2-3.4,11.3-14.2,11.3C302,71.9,297,69.2,294,65.5z"/>
</g>
<g class="st0">
</g>
<g class="st0">
	<path class="st2" d="M377.9,71.1v-40h25.4v3.1h-22v14.8h21.5v3.1h-21.5v19H377.9z"/>
	<path class="st2" d="M424.4,71.1v-40h3.4v40H424.4z"/>
	<path class="st2" d="M451.8,71.1v-40h25.4v3.1h-22v14.8h21.5v3.1h-21.5v19H451.8z"/>
	<path class="st2" d="M508.5,71.1V34.2h-13.1v-3.1h29.6v3.1H512v36.9H508.5z"/>
	<path class="st2" d="M546.1,71.1v-40h25.4v3.1h-22v14.8h21.5v3.1h-21.5V68h22v3.1H546.1z"/>
	<path class="st2" d="M593.9,71.1v-40h25.4v3.1h-22v14.8h21.5v3.1h-21.5V68h22v3.1H593.9z"/>
	<path class="st2" d="M670.4,71.1l-25.2-34.4v34.4h-3.4v-40h3.5L670.3,65V31.1h3.4v40H670.4z"/>
</g>
</svg>
