<?xml version="1.0" encoding="utf-8"?>
<!-- Generator: Adobe Illustrator 20.0.0, SVG Export Plug-In . SVG Version: 6.00 Build 0)  -->
<svg version="1.1" id="Layer_1" xmlns="http://www.w3.org/2000/svg" xmlns:xlink="http://www.w3.org/1999/xlink" x="0px" y="0px"
	 viewBox="0 0 609 102" style="enable-background:new 0 0 609 102;" xml:space="preserve">
<style type="text/css">
	.st0{enable-background:new    ;}
	.st1{fill:#F6A81C;}
</style>
<g class="st0">
	<path d="M56.7,48.7H44.2V66h-3.3V31.4h15.8v3.3H44.2v10.6h12.5V48.7z"/>
	<path d="M91.9,66.1H77.3v-3.3H83V34.7h-5.6v-3.3h14.6v3.3h-5.6v28.2h5.6V66.1z"/>
	<path d="M133.3,34.7h-11.1V66h-3.4V34.7h-11.2v-3.3h25.6V34.7z"/>
	<path d="M170.4,66.1H169l-23.3-26.8v26.8h-3.4V31.5l1.3,0L167,58.9V31.5h3.4V66.1z"/>
	<path d="M200.9,66h-17.3V31.4h17.3v3.3h-14v10.6h14v3.3h-14v13.9h14V66z"/>
	<path d="M238.7,56.1c0,6.8-3.3,10.2-10,10.2c-5.6,0-9.4-2.7-11.3-8.2l3.5-1.2c0,1.9,0.9,3.4,2.6,4.6c1.5,1,3.2,1.5,5.2,1.5
		c4.5,0,6.7-2.2,6.7-6.7c0-1.6-1.1-3.3-3.2-4.9c-1-0.8-3.2-2.1-6.5-4c-2.7-1.5-4.5-2.8-5.2-3.7c-0.8-1-1.2-2.4-1.2-4.1
		c0-2.6,0.9-4.6,2.8-6.2c1.7-1.5,3.9-2.2,6.5-2.2c3.8,0,6.7,2,8.8,5.9l-3.2,1.2c-1.4-2.5-3.3-3.8-5.5-3.8c-1.6,0-3,0.5-4.1,1.4
		c-1.2,1-1.8,2.3-1.8,3.9c0,1.4,1.4,2.9,4.2,4.5c4.7,2.7,7.3,4.2,7.7,4.5C237.3,50.9,238.7,53.3,238.7,56.1z"/>
	<path d="M274.6,56.1c0,6.8-3.3,10.2-10,10.2c-5.6,0-9.4-2.7-11.3-8.2l3.5-1.2c0,1.9,0.9,3.4,2.6,4.6c1.5,1,3.2,1.5,5.2,1.5
		c4.5,0,6.7-2.2,6.7-6.7c0-1.6-1.1-3.3-3.2-4.9c-1-0.8-3.2-2.1-6.5-4c-2.7-1.5-4.5-2.8-5.2-3.7c-0.8-1-1.2-2.4-1.2-4.1
		c0-2.6,0.9-4.6,2.8-6.2c1.7-1.5,3.9-2.2,6.5-2.2c3.8,0,6.7,2,8.8,5.9l-3.2,1.2c-1.4-2.5-3.3-3.8-5.5-3.8c-1.6,0-3,0.5-4.1,1.4
		c-1.2,1-1.8,2.3-1.8,3.9c0,1.4,1.4,2.9,4.2,4.5c4.7,2.7,7.3,4.2,7.7,4.5C273.2,50.9,274.6,53.3,274.6,56.1z"/>
</g>
<g class="st0">
	<path class="st1" d="M343.6,48.7h-12.5V66h-3.3V31.4h15.8v3.3h-12.5v10.6h12.5V48.7z"/>
	<path class="st1" d="M378.8,66.1h-14.6v-3.3h5.6V34.7h-5.6v-3.3h14.6v3.3h-5.6v28.2h5.6V66.1z"/>
	<path class="st1" d="M415.3,48.7h-12.5V66h-3.3V31.4h15.8v3.3h-12.5v10.6h12.5V48.7z"/>
	<path class="st1" d="M456.1,34.7H445V66h-3.4V34.7h-11.2v-3.3h25.6V34.7z"/>
	<path class="st1" d="M487.8,66h-17.3V31.4h17.3v3.3h-14v10.6h14v3.3h-14v13.9h14V66z"/>
	<path class="st1" d="M523.6,66h-17.3V31.4h17.3v3.3h-14v10.6h14v3.3h-14v13.9h14V66z"/>
	<path class="st1" d="M564.9,66.1h-1.4l-23.3-26.8v26.8h-3.4V31.5l1.3,0l23.4,27.5V31.5h3.4V66.1z"/>
</g>
</svg>
