<?xml version="1.0" encoding="utf-8"?>
<!-- Generator: Adobe Illustrator 20.0.0, SVG Export Plug-In . SVG Version: 6.00 Build 0)  -->
<svg version="1.1" id="Layer_1" xmlns="http://www.w3.org/2000/svg" xmlns:xlink="http://www.w3.org/1999/xlink" x="0px" y="0px"
	 viewBox="0 0 594.3 102" style="enable-background:new 0 0 594.3 102;" xml:space="preserve">
<style type="text/css">
	.st0{enable-background:new    ;}
	.st1{fill:#FFFFFF;}
	.st2{fill:#F6A81C;}
</style>
<g class="st0">
	<path class="st1" d="M137.1,46.4h-12.5v17.3h-3.3V29.1h15.8v3.3h-12.5V43h12.5V46.4z"/>
	<path class="st1" d="M172.4,63.8h-14.6v-3.3h5.6V32.3h-5.6V29h14.6v3.3h-5.6v28.2h5.6V63.8z"/>
	<path class="st1" d="M213.7,32.4h-11.1v31.3h-3.4V32.4h-11.2v-3.3h25.6V32.4z"/>
	<path class="st1" d="M250.8,63.8h-1.4l-23.3-26.8v26.8h-3.4V29.1l1.3,0l23.4,27.5V29.1h3.4V63.8z"/>
	<path class="st1" d="M281.3,63.7h-17.3V29.1h17.3v3.3h-14V43h14v3.3h-14v13.9h14V63.7z"/>
	<path class="st1" d="M319.1,53.8c0,6.8-3.3,10.2-10,10.2c-5.6,0-9.4-2.7-11.3-8.2l3.5-1.2c0,1.9,0.9,3.4,2.6,4.6
		c1.5,1,3.2,1.5,5.2,1.5c4.5,0,6.7-2.2,6.7-6.7c0-1.6-1.1-3.3-3.2-4.9c-1-0.8-3.2-2.1-6.5-4c-2.7-1.5-4.5-2.8-5.2-3.7
		c-0.8-1-1.2-2.4-1.2-4.1c0-2.6,0.9-4.6,2.8-6.2c1.7-1.5,3.9-2.2,6.5-2.2c3.8,0,6.7,2,8.8,5.9l-3.2,1.2c-1.4-2.5-3.3-3.8-5.5-3.8
		c-1.6,0-3,0.5-4.1,1.4c-1.2,1-1.8,2.3-1.8,3.9c0,1.4,1.4,2.9,4.2,4.5c4.7,2.7,7.3,4.2,7.7,4.5C317.7,48.6,319.1,51,319.1,53.8z"/>
	<path class="st1" d="M355,53.8c0,6.8-3.3,10.2-10,10.2c-5.6,0-9.4-2.7-11.3-8.2l3.5-1.2c0,1.9,0.9,3.4,2.6,4.6
		c1.5,1,3.2,1.5,5.2,1.5c4.5,0,6.7-2.2,6.7-6.7c0-1.6-1.1-3.3-3.2-4.9c-1-0.8-3.2-2.1-6.5-4c-2.7-1.5-4.5-2.8-5.2-3.7
		c-0.8-1-1.2-2.4-1.2-4.1c0-2.6,0.9-4.6,2.8-6.2c1.7-1.5,3.9-2.2,6.5-2.2c3.8,0,6.7,2,8.8,5.9l-3.2,1.2c-1.4-2.5-3.3-3.8-5.5-3.8
		c-1.6,0-3,0.5-4.1,1.4c-1.2,1-1.8,2.3-1.8,3.9c0,1.4,1.4,2.9,4.2,4.5c4.7,2.7,7.3,4.2,7.7,4.5C353.6,48.6,355,51,355,53.8z"/>
</g>
<g class="st0">
</g>
<g class="st0">
	<path class="st2" d="M420.1,63.7h-3.3V32.4h-4.7l2.2-3.3h5.8V63.7z"/>
	<path class="st2" d="M464,51.1c0,3.8-1.1,6.9-3.3,9.3c-2.3,2.5-5.3,3.7-9.1,3.7c-3,0-5.4-0.7-7.3-2c-1.8-1.3-3.3-3.3-4.5-6.1l3-1.1
		c1.8,3.9,4.7,5.9,8.8,5.9c2.6,0,4.8-1,6.5-2.9c1.7-1.9,2.5-4.2,2.5-6.8c0-2.6-1-4.7-3-6.2c-1.8-1.4-4-2-6.8-2
		c-2.8,0-5.2,0.5-7.1,1.4l3.9-15.2h14v3.3h-11.2l-1.9,6.9c1.9-0.2,3-0.2,3.4-0.2c3.6,0,6.4,1.1,8.6,3.3S464,47.5,464,51.1z"/>
</g>
</svg>
