<?xml version="1.0" encoding="utf-8"?>
<!-- Generator: Adobe Illustrator 20.0.0, SVG Export Plug-In . SVG Version: 6.00 Build 0)  -->
<svg version="1.1" id="Layer_1" xmlns="http://www.w3.org/2000/svg" xmlns:xlink="http://www.w3.org/1999/xlink" x="0px" y="0px"
	 viewBox="0 0 609 102" style="enable-background:new 0 0 609 102;" xml:space="preserve">
<style type="text/css">
	.st0{enable-background:new    ;}
	.st1{fill:#F6A81C;}
</style>
<g class="st0">
	<path d="M32.7,70.1V30h26.2v4.4H37.7v12.9h20.8v4.4H37.7v18.2H32.7z"/>
	<path d="M71.8,70.1V30h5v40H71.8z"/>
	<path d="M102,70.1V34.5H89.4V30h30.4v4.4H107v35.6H102z"/>
	<path d="M160.6,70.1l-23.3-31.9v31.9h-5V30h5.1l23,31.3V30h5v40H160.6z"/>
	<path d="M180.8,70.1V30H207v4.4h-21.2v12.9h20.8v4.4h-20.8v13.8H207v4.4H180.8z"/>
	<path d="M218.5,64.4l3-3.8c2.6,3,6.9,5.8,12.5,5.8c7.1,0,9.4-3.8,9.4-7c0-10.3-23.7-4.6-23.7-18.8c0-6.6,5.9-11.2,13.8-11.2
		c6.1,0,10.8,2.1,14.2,5.6l-3,3.7c-3-3.4-7.2-4.8-11.6-4.8c-4.7,0-8.2,2.6-8.2,6.4c0,9,23.7,3.8,23.7,18.8c0,5.8-4,11.8-14.8,11.8
		C227,70.8,221.8,68.1,218.5,64.4z"/>
	<path d="M259.7,64.4l3-3.8c2.6,3,6.9,5.8,12.5,5.8c7.1,0,9.4-3.8,9.4-7c0-10.3-23.7-4.6-23.7-18.8c0-6.6,5.9-11.2,13.8-11.2
		c6.1,0,10.8,2.1,14.2,5.6l-3,3.7c-3-3.4-7.2-4.8-11.6-4.8c-4.7,0-8.2,2.6-8.2,6.4c0,9,23.7,3.8,23.7,18.8c0,5.8-4,11.8-14.8,11.8
		C268.2,70.8,263,68.1,259.7,64.4z"/>
</g>
<g class="st0">
	<path class="st1" d="M324.8,70.1V30H351v4.4h-21.2v12.9h20.8v4.4h-20.8v18.2H324.8z"/>
	<path class="st1" d="M363.9,70.1V30h5v40H363.9z"/>
	<path class="st1" d="M384.2,70.1V30h26.2v4.4h-21.2v12.9H410v4.4h-20.8v18.2H384.2z"/>
	<path class="st1" d="M433.2,70.1V34.5h-12.7V30h30.4v4.4h-12.7v35.6H433.2z"/>
	<path class="st1" d="M463.5,70.1V30h26.2v4.4h-21.2v12.9h20.8v4.4h-20.8v13.8h21.2v4.4H463.5z"/>
	<path class="st1" d="M503.6,70.1V30h26.2v4.4h-21.2v12.9h20.8v4.4h-20.8v13.8h21.2v4.4H503.6z"/>
	<path class="st1" d="M572.1,70.1l-23.3-31.9v31.9h-5V30h5.1l23,31.3V30h5v40H572.1z"/>
</g>
</svg>
